<?xml version="1.0" encoding="UTF-8"?>
<!DOCTYPE svg PUBLIC "-//W3C//DTD SVG 1.1//EN" "http://www.w3.org/Graphics/SVG/1.1/DTD/svg11.dtd">
<!-- Creator: CorelDRAW 2023 -->
<svg xmlns="http://www.w3.org/2000/svg" xml:space="preserve" width="48px" height="48px" version="1.1" style="shape-rendering:geometricPrecision; text-rendering:geometricPrecision; image-rendering:optimizeQuality; fill-rule:evenodd; clip-rule:evenodd"
viewBox="0 0 2.88 2.88"
 xmlns:xlink="http://www.w3.org/1999/xlink"
 xmlns:xodm="http://www.corel.com/coreldraw/odm/2003">
 <defs>
  <style type="text/css">
   <![CDATA[
    .fil0 {fill:none}
    .fil1 {fill:#336699}
   ]]>
  </style>
 </defs>
 <g id="Camada_x0020_1">
  <metadata id="CorelCorpID_0Corel-Layer"/>
  <g id="_2514717382784">
   <rect class="fil0" width="2.88" height="2.88"/>
   <g>
    <path class="fil1" d="M1.63 0.85l0.08 0.02 0.01 -0.04 -0.15 -0.04 -0.01 0.04 0.07 0.02zm0.23 0.42c0.02,-0.01 0.06,-0.02 0.09,-0.05 0.01,0 0.01,0 0.02,0l0.16 0c0.01,0 0.02,-0.01 0.02,-0.02l0 -0.17c0,-0.01 -0.01,-0.02 -0.02,-0.02l-0.17 0c0,0 0,-0.01 -0.01,-0.01l-0.21 -0.07 -0.04 0.16c0,0.02 -0.01,0.02 -0.03,0.02l-0.2 0c-0.01,0 -0.02,0 -0.03,0.01 -0.02,0.02 -0.01,0.07 0.03,0.07l0.11 0c0,0 0,0 0.01,0 0.04,0.02 0.08,0.04 0.12,0.06 0.07,0.03 0.09,0.05 0.15,0.02l0 0zm0.08 -0.33l-0.18 -0.06 0.01 -0.05 0.13 0c0.02,0 0.04,0.01 0.04,0.03l0 0.08 0 0zm0.26 0.09l0 0.17c0,0.04 -0.03,0.07 -0.07,0.07l-0.14 0 0 0.24c0,0 0.01,0 0.01,0 0.08,-0.01 0.16,0.06 0.14,0.14 -0.01,0.04 -0.03,0.06 -0.05,0.08l0.14 0c0.01,0 0.02,0.01 0.02,0.02l0 0.16c0,0.02 -0.01,0.03 -0.02,0.03l-0.03 0 0 0.22c0,0.05 -0.04,0.09 -0.09,0.09l-1.39 0c-0.05,0 -0.09,-0.04 -0.09,-0.09l0 -1.3c0,-0.04 0.04,-0.08 0.09,-0.08l0.42 0c0.02,0 0.03,-0.02 0.03,-0.04 0.02,-0.1 0.15,-0.15 0.23,-0.07 0.02,0.02 0.03,0.05 0.04,0.07 0,0.02 0.02,0.04 0.04,0.04l0.04 0 0.02 -0.06c0.02,-0.1 0.13,-0.11 0.2,-0.06 0.03,0.02 0.05,0.06 0.04,0.12l0.12 0c0.05,0 0.09,0.04 0.09,0.08l0 0.1 0.14 0c0.04,0 0.07,0.03 0.07,0.07l0 0zm-0.3 0.58c-0.01,-0.02 -0.02,-0.05 -0.04,-0.07l0 -0.21c0.02,-0.01 0.05,-0.02 0.08,-0.04l0 0.25c-0.02,0.02 -0.03,0.05 -0.04,0.07l0 0zm-1.09 0.45l0 -1.08 0.66 0 -0.03 0.08c-0.06,0.02 -0.08,0.11 -0.04,0.15l0 0.01 -0.24 0c-0.01,0 -0.03,0.01 -0.03,0.02 0,0.02 0.02,0.03 0.03,0.03l0.23 0 -0.01 0.02c0,0.01 0,0.01 0.01,0.01l0.05 0.18c0.01,0.02 0.03,0.03 0.04,0.02l0.14 -0.13c0.01,-0.01 0.01,-0.01 0.01,-0.01l0.02 -0.08c0.01,0 0.02,0.01 0.04,0.01 0.05,0.03 0.08,0.05 0.12,0.05l0 0.17c-0.01,0 -0.01,0 -0.01,0 -0.09,-0.01 -0.16,0.06 -0.14,0.14 0,0.04 0.02,0.06 0.05,0.08l-0.14 0c-0.01,0 -0.03,0.01 -0.03,0.02l0 0.02 -0.14 0c-0.01,0 -0.02,0.01 -0.02,0.03 0,0.01 0.01,0.02 0.02,0.02l0.14 0 0 0.09c0,0.02 0.02,0.03 0.03,0.03l0.03 0 0 0.12 -0.79 0 0 0zm0.79 -0.81l-0.01 0.07 -0.05 -0.02 0.02 -0.06 0.01 0c0.01,0 0.02,0.01 0.03,0.01l0 0zm-0.1 -0.01l-0.01 0.05 -0.05 -0.01 0.01 -0.04c0.01,0 0.04,0 0.05,0l0 0zm0 -0.18l0.05 -0.18 0.05 0.01 -0.05 0.17 -0.05 0 0 0zm0.1 0l0.04 -0.15 0.05 0.01 -0.03 0.14 -0.06 0zm-0.92 1.1l0 -1.3c0,-0.02 0.02,-0.03 0.04,-0.03l0.31 0 0 0.09 -0.24 0c-0.02,0 -0.03,0.02 -0.03,0.03l0 1.14c0,0.01 0.01,0.02 0.03,0.02l0.81 0 0 0.05c0,0.02 0,0.03 0.01,0.04l-0.89 0c-0.02,0 -0.04,-0.02 -0.04,-0.04l0 0zm1.32 -0.27l0.2 0 0 -0.11 -0.2 0 0 0.11zm0.15 0.05l-0.15 0 0 0.26 0.11 0c0.02,0 0.04,-0.02 0.04,-0.04l0 -0.22zm-0.56 -0.05l0.21 0 0 -0.11 -0.21 0 0 0.11zm0.06 0.27c0,0.02 0.01,0.04 0.04,0.04l0.11 0 0 -0.26 -0.15 0 0 0.22zm-0.14 -1.33l-0.03 0c-0.05,0 -0.09,-0.04 -0.09,-0.08 -0.01,-0.06 -0.09,-0.09 -0.14,-0.04 -0.01,0.01 -0.02,0.02 -0.03,0.04 0,0.04 -0.04,0.08 -0.08,0.08l-0.06 0 0 0.09 0.4 0 0.03 -0.09 0 0zm-0.35 0.77l0.26 0c0.02,0 0.03,-0.01 0.03,-0.03 0,-0.01 -0.01,-0.02 -0.03,-0.02l-0.26 0c-0.01,0 -0.03,0.01 -0.03,0.02 0,0.02 0.02,0.03 0.03,0.03zm0 0.33l0.26 0c0.02,0 0.03,-0.01 0.03,-0.03 0,-0.01 -0.01,-0.02 -0.03,-0.02l-0.26 0c-0.01,0 -0.03,0.01 -0.03,0.02 0,0.02 0.02,0.03 0.03,0.03l0 0zm0 -0.44l0.17 0c0.02,0 0.03,-0.01 0.03,-0.02 0,-0.02 -0.01,-0.03 -0.03,-0.03l-0.17 0c-0.01,0 -0.03,0.01 -0.03,0.03 0,0.01 0.02,0.02 0.03,0.02zm0 -0.33l0.13 0c0.01,0 0.02,-0.01 0.02,-0.03 0,-0.01 -0.01,-0.02 -0.02,-0.02l-0.13 0c-0.01,0 -0.03,0.01 -0.03,0.02 0,0.02 0.02,0.03 0.03,0.03l0 0zm0 0.66l0.13 0c0.01,0 0.02,-0.01 0.02,-0.02 0,-0.02 -0.01,-0.03 -0.02,-0.03l-0.13 0c-0.01,0 -0.03,0.01 -0.03,0.03 0,0.01 0.02,0.02 0.03,0.02l0 0zm-0.25 -0.62l0.05 0.04c0.01,0.02 0.02,0.02 0.03,0.01l0.08 -0.08c0.01,-0.01 0.01,-0.03 0,-0.04 -0.01,-0.01 -0.02,-0.01 -0.03,0l-0.07 0.06 -0.02 -0.02c-0.01,-0.01 -0.03,-0.01 -0.04,0 -0.01,0.01 -0.01,0.02 0,0.03l0 0zm0.13 0.26l-0.07 0.07 -0.02 -0.03c-0.01,-0.01 -0.03,-0.01 -0.04,0 -0.01,0.01 -0.01,0.03 0,0.04l0.05 0.04c0.01,0.01 0.02,0.01 0.03,0l0.08 -0.08c0.01,-0.01 0.01,-0.03 0,-0.04 -0.01,-0.01 -0.02,-0.01 -0.03,0l0 0zm0 0.33l-0.07 0.07 -0.02 -0.03c-0.01,-0.01 -0.03,-0.01 -0.04,0 -0.01,0.01 -0.01,0.03 0,0.04l0.05 0.04c0.01,0.01 0.02,0.01 0.03,0l0.08 -0.08c0.01,-0.01 0.01,-0.03 0,-0.04 -0.01,-0.01 -0.02,-0.01 -0.03,0l0 0zm0.83 -0.07c-0.01,-0.05 -0.02,-0.15 -0.08,-0.16 -0.05,-0.01 -0.09,0.03 -0.08,0.08 0.01,0.06 0.11,0.08 0.16,0.08l0 0zm-0.02 0.48l0.1 0 0 -0.42 -0.1 0 0 0.42zm0.16 -0.64c-0.06,0.01 -0.08,0.11 -0.08,0.16 0.05,0 0.15,-0.02 0.16,-0.08 0.01,-0.05 -0.03,-0.09 -0.08,-0.08l0 0zm-0.46 -0.2l-0.1 -0.03 0.03 0.1 0.07 -0.07zm0.18 -0.58l0 -0.01c0.02,-0.06 -0.04,-0.09 -0.09,-0.09 -0.02,0 -0.05,0.02 -0.05,0.05l-0.01 0.01 0.15 0.04z"/>
   </g>
  </g>
 </g>
</svg>