<?xml version="1.0" encoding="UTF-8"?>
<!DOCTYPE svg PUBLIC "-//W3C//DTD SVG 1.1//EN" "http://www.w3.org/Graphics/SVG/1.1/DTD/svg11.dtd">
<!-- Creator: CorelDRAW 2023 -->
<svg xmlns="http://www.w3.org/2000/svg" xml:space="preserve" width="48px" height="48px" version="1.1" style="shape-rendering:geometricPrecision; text-rendering:geometricPrecision; image-rendering:optimizeQuality; fill-rule:evenodd; clip-rule:evenodd"
viewBox="0 0 2.12 2.12"
 xmlns:xlink="http://www.w3.org/1999/xlink"
 xmlns:xodm="http://www.corel.com/coreldraw/odm/2003">
 <defs>
  <style type="text/css">
   <![CDATA[
    .fil0 {fill:none}
    .fil1 {fill:#336699}
   ]]>
  </style>
 </defs>
 <g id="Camada_x0020_1">
  <metadata id="CorelCorpID_0Corel-Layer"/>
  <g id="_2514717374720">
   <rect class="fil0" width="2.12" height="2.12"/>
   <g>
    <path class="fil1" d="M1.06 0.6c0.09,0 0.17,0.08 0.17,0.17 0,0.09 -0.08,0.17 -0.17,0.17 -0.1,0 -0.17,-0.08 -0.17,-0.17 0,-0.09 0.07,-0.17 0.17,-0.17zm-0.23 0.71c0,-0.1 -0.08,-0.18 -0.19,-0.18 -0.1,0 -0.18,0.08 -0.18,0.18 0,0.1 0.08,0.18 0.18,0.18 0.11,0 0.19,-0.08 0.19,-0.18zm-0.16 -0.03c-0.02,0.02 -0.06,0.01 -0.06,-0.02 0,-0.03 0.04,-0.04 0.06,-0.02 0.01,0.01 0.01,0.03 0,0.04zm0.05 0.12l0 0.04c0,0 -0.01,0 -0.01,0 -0.04,0.02 -0.09,0.02 -0.13,0 0,0 -0.01,0 -0.01,0l0 -0.04c0,-0.06 0.08,-0.1 0.12,-0.05 0.02,0.01 0.03,0.03 0.03,0.05zm0.47 -0.06c-0.07,-0.07 -0.19,-0.07 -0.26,0 -0.07,0.08 -0.07,0.19 0,0.26 0.07,0.07 0.19,0.07 0.26,0 0.07,-0.07 0.07,-0.18 0,-0.26zm-0.1 0.08c0,0.03 -0.03,0.05 -0.05,0.03 -0.02,-0.02 -0.01,-0.06 0.02,-0.06 0.02,0 0.03,0.01 0.03,0.03zm0.04 0.14l0 0.04c0,0 0,0 0,0 -0.04,0.02 -0.1,0.02 -0.14,0 0,0 0,0 0,0l0 -0.04c0,-0.06 0.07,-0.09 0.12,-0.05 0.01,0.02 0.02,0.03 0.02,0.05zm0.34 -0.43c-0.1,0 -0.18,0.08 -0.18,0.18 0,0.1 0.08,0.18 0.18,0.18 0.1,0 0.19,-0.08 0.19,-0.18 0,-0.1 -0.09,-0.18 -0.19,-0.18zm0 0.1c0.03,0 0.05,0.03 0.03,0.05 -0.02,0.02 -0.06,0.01 -0.06,-0.02 0,-0.02 0.02,-0.03 0.03,-0.03zm0.05 0.12c0.02,0.01 0.02,0.03 0.02,0.05l0 0.04c0,0 0,0 0,0 -0.04,0.02 -0.09,0.02 -0.14,0 0,0 0,0 0,0l0 -0.04c0,-0.06 0.08,-0.1 0.12,-0.05zm-0.43 -0.63c0,0 0.01,0 0.02,0.01 0.01,0 0.02,0 0.02,-0.01 0.01,-0.01 0,-0.02 -0.01,-0.03 -0.01,0 -0.02,-0.01 -0.04,-0.01 0,0 0,0 0,0 0,-0.01 -0.01,-0.02 -0.02,-0.02 -0.01,0 -0.02,0.01 -0.02,0.02 0,0.01 0,0 -0.02,0.01 -0.05,0.02 -0.05,0.07 0,0.09l0 0c0.03,0.01 0.04,0 0.06,0.01 0.01,0 0.02,0.01 0.02,0.02 0,0 -0.01,0.01 -0.02,0.01 -0.02,0.01 -0.05,0 -0.07,-0.01 -0.01,0 -0.02,0 -0.02,0.01 -0.01,0.01 0,0.02 0.01,0.03 0.01,0 0.02,0.01 0.04,0.01 0,0 0,0 0,0 0,0.01 0.01,0.02 0.02,0.02 0.01,0 0.02,-0.01 0.02,-0.02 0,-0.01 0,0 0.02,-0.01 0.01,0 0.02,-0.01 0.02,-0.02 0.01,0 0.01,-0.02 0.01,-0.03 0,-0.02 -0.01,-0.03 -0.03,-0.04 -0.02,-0.01 -0.05,-0.01 -0.06,-0.01 -0.02,-0.01 -0.02,-0.02 0,-0.03 0.01,-0.01 0.03,0 0.05,0l0 0zm-0.34 0.01l0 0.08c0,0 0,0 0.01,0l0.06 0.02c0,0 0,0 0,0 0,0.03 0.01,0.05 0.02,0.07 0,0 0,0 0,0l-0.03 0.06c0,0 0,0 0.01,0l0.01 0.01c0,0 0,0 0,0l-0.08 0.08c0,0 0,0 0,0l0 -0.02c0,-0.01 0,-0.02 -0.01,-0.02 -0.01,0 -0.02,0.01 -0.02,0.02l-0.02 0.07c0,0.02 0.01,0.03 0.02,0.03l0.08 -0.02c0.01,0 0.02,-0.01 0.02,-0.02 -0.01,-0.01 -0.01,-0.02 -0.02,-0.01l-0.02 0c0,0 0,0 0,-0.01l0.07 -0.07c0.01,0 0.01,0 0.01,0l0.01 0.01c0,0 0,0.01 0,0l0.06 -0.02c0,-0.01 0,-0.01 0,0 0.02,0.01 0.04,0.02 0.07,0.02 0,0 0,0 0,0l0.02 0.06c0,0.01 0,0.01 0,0.01l0.02 0c0,0 0,0 0,0l0 0.1c0,0 0,0.01 0,0l-0.01 -0.01c-0.01,-0.01 -0.02,-0.01 -0.03,0 0,0 -0.01,0.02 0,0.02l0.04 0.07c0.01,0.01 0.03,0.01 0.04,0l0.04 -0.07c0.01,0 0,-0.02 -0.01,-0.02 0,-0.01 -0.01,-0.01 -0.02,0l-0.01 0.01c0,0.01 0,0 0,0l0 -0.1c0,0 0,0 0,0l0.02 0c0,0 0,0 0,-0.01l0.02 -0.06c0,0 0,0 0,0 0.03,0 0.05,-0.01 0.07,-0.02 0,-0.01 0,-0.01 0,0l0.06 0.02c0,0 0,0 0,0l0.01 -0.01c0,0 0,0 0,0l0.08 0.07c0,0.01 0,0.01 0,0.01l-0.02 0c-0.01,-0.01 -0.02,0 -0.02,0.01 0,0.01 0.01,0.02 0.02,0.02l0.07 0.02c0.02,0 0.03,-0.01 0.03,-0.03l-0.02 -0.07c0,-0.01 -0.01,-0.02 -0.02,-0.02 -0.01,0 -0.02,0.01 -0.01,0.02l0 0.02c0,0 0,0 -0.01,0l-0.07 -0.08c0,0 0,0 0,0l0.01 -0.01c0,0 0,0 0,0l-0.03 -0.06c0,0 0,0 0,0 0.02,-0.02 0.02,-0.04 0.03,-0.07 0,0 0,0 0,0l0.06 -0.02c0,0 0.01,0 0.01,0l0 -0.08c0,0 -0.01,0 -0.01,0l-0.06 -0.02c0,0 0,0 0,0 -0.01,-0.03 -0.01,-0.05 -0.03,-0.07 0,0 0,0 0,0l0.03 -0.06c0,0 0,0 0,0l-0.05 -0.05c0,-0.01 0,-0.01 0,-0.01l-0.06 0.03c0,0 0,0 0,0 -0.02,-0.01 -0.04,-0.02 -0.07,-0.02 0,0 0,0 0,0l-0.02 -0.06c0,-0.01 0,-0.01 0,-0.01l-0.08 0c0,0 0,0 0,0.01l-0.02 0.06c0,0 0,0 0,0 -0.03,0 -0.05,0.01 -0.07,0.02 0,0 0,0 0,0l-0.06 -0.03c0,0 0,0 0,0.01l-0.05 0.05c-0.01,0 -0.01,0 -0.01,0l0.03 0.06c0,0 0,0 0,0 -0.01,0.02 -0.02,0.04 -0.02,0.07 0,0 0,0 0,0l-0.06 0.02c-0.01,0 -0.01,0 -0.01,0l0 0z"/>
   </g>
  </g>
 </g>
</svg>
