<?xml version="1.0" encoding="UTF-8"?>
<!DOCTYPE svg PUBLIC "-//W3C//DTD SVG 1.1//EN" "http://www.w3.org/Graphics/SVG/1.1/DTD/svg11.dtd">
<!-- Creator: CorelDRAW 2023 -->
<svg xmlns="http://www.w3.org/2000/svg" xml:space="preserve" width="48px" height="48px" version="1.1" style="shape-rendering:geometricPrecision; text-rendering:geometricPrecision; image-rendering:optimizeQuality; fill-rule:evenodd; clip-rule:evenodd"
viewBox="0 0 2.32 2.32"
 xmlns:xlink="http://www.w3.org/1999/xlink"
 xmlns:xodm="http://www.corel.com/coreldraw/odm/2003">
 <defs>
  <style type="text/css">
   <![CDATA[
    .fil0 {fill:none}
    .fil1 {fill:#336699;fill-rule:nonzero}
   ]]>
  </style>
 </defs>
 <g id="Camada_x0020_1">
  <metadata id="CorelCorpID_0Corel-Layer"/>
  <g id="_2514710613952">
   <rect class="fil0" width="2.32" height="2.32"/>
   <g>
    <path class="fil1" d="M1.86 0.51l-0.88 0c-0.02,0 -0.04,0.02 -0.04,0.04l0 0.06 -0.06 0c-0.02,0 -0.04,0.01 -0.04,0.04l0 0.63c-0.01,0 -0.02,0.01 -0.03,0.02l0 0 0 0c-0.02,0 -0.05,0.01 -0.07,0.03 -0.02,0.01 -0.03,0.02 -0.04,0.03 -0.01,-0.01 -0.02,-0.02 -0.03,-0.02l-0.07 0 0 0 0 0 0 0c0,-0.02 -0.02,-0.04 -0.03,-0.04l-0.09 0c-0.01,-0.01 -0.01,0 -0.02,0 -0.01,0.01 -0.01,0.02 -0.01,0.03l-0.03 0.35c0,0.02 0.01,0.04 0.03,0.04l0.12 0.01c0,0 0.01,0 0.01,0l0 0c0.01,0 0.01,-0.01 0.02,-0.01 0.01,-0.01 0.01,-0.02 0.01,-0.02l0.03 0c0,0 0,0 0,0 0.02,0 0.03,-0.01 0.04,-0.03l0 0c0,0.02 0.01,0.04 0.02,0.05 0.02,0.01 0.04,0.02 0.06,0.01 0.01,0.03 0.04,0.04 0.07,0.03 0,0 0.01,0 0.01,0 0.01,0.02 0.04,0.03 0.06,0.02 0.01,0.02 0.03,0.04 0.05,0.04 0.03,0 0.05,-0.02 0.06,-0.04l0 0c0.02,0.01 0.05,0 0.06,-0.02l0.69 0c0.03,0 0.05,-0.02 0.05,-0.04l0 -0.06 0.05 0 0 0c0.01,0 0.02,0 0.03,-0.01 0.01,-0.01 0.01,-0.02 0.01,-0.03l0 -1.07c0,-0.02 -0.02,-0.04 -0.04,-0.04l0 0zm0 0.04l0 0.18 -0.18 -0.18 0.18 0c0,0 0,0 0,0l0 0zm-0.21 0.03l0.18 0.18 -0.18 0 0 -0.18zm-0.77 0.07c0,0 0,0 0,0l0.06 0 0 0.59c-0.01,0 -0.01,0 -0.01,0l0 0c-0.02,0.01 -0.03,0.01 -0.05,0.02l0 -0.61zm0.05 0.63c0.06,-0.01 0.1,0.01 0.15,0.03 0.04,0.02 0.08,0.04 0.14,0.05l0 0.24 0 0c0,0.01 -0.01,0.01 -0.01,0.01 0,0 0,0 0,0l0 0c-0.01,-0.02 -0.01,-0.04 -0.03,-0.05l-0.11 -0.09c0,0 0.01,0 0.02,0l0 0c0.01,-0.01 0.01,-0.02 0.01,-0.03 -0.01,-0.01 -0.02,-0.02 -0.03,-0.01 -0.06,0.02 -0.07,0 -0.09,-0.02 -0.01,-0.02 -0.02,-0.03 -0.04,-0.03 -0.03,-0.01 -0.06,0 -0.08,0.03l-0.02 0.03c-0.01,0.02 -0.02,0.03 -0.04,0.03 0,0 -0.01,0 -0.01,0 0,0 0,-0.01 0,-0.01l0.02 -0.1c0.01,-0.01 0.01,-0.01 0.01,-0.01 0.04,-0.04 0.06,-0.06 0.11,-0.07zm0.44 0.02l0.07 -0.01 0.01 0.35 -0.11 0.01 0.03 -0.35zm-0.07 0.31l-0.03 0.01 0 0c0,0 0,-0.01 0,-0.01l-0.01 -0.28 0 0c0,0 0,0 0,0 0,0 0,0 0,0l0.06 0 -0.02 0.28zm-0.84 0.07l0.03 -0.34 0.07 0 0.01 0.35 -0.11 -0.01zm0.18 -0.02l-0.03 0 -0.01 -0.28 0.06 0 0 0c0,0 0,0 0,0l-0.02 0.28c0,0 0,0 0,0l0 0zm0.05 -0.03l0 0 0.01 -0.23c0.02,-0.01 0.04,-0.02 0.06,-0.03 0,-0.01 0.01,-0.01 0.01,-0.01l-0.02 0.09 0 0c-0.01,0.02 0,0.05 0.02,0.06 0.01,0 0.02,0 0.02,0 0.04,0 0.07,-0.02 0.08,-0.04l0.03 -0.04c0.01,-0.02 0.02,-0.02 0.03,-0.01 0.01,0 0.01,0.01 0.01,0.01 0.02,0.03 0.04,0.04 0.07,0.05l0.15 0.11c0,0.01 0.01,0.01 0.01,0.02 0,0 0,0.01 -0.01,0.01 0,0.01 -0.02,0.01 -0.03,0.01l-0.12 -0.1c0,0 -0.01,0 -0.01,0 -0.01,0 -0.01,0 -0.02,0 0,0.01 0,0.02 0.01,0.03l0.11 0.09c0.01,0.01 0.01,0.02 0,0.03 0,0.01 -0.02,0.01 -0.02,0l-0.03 -0.02 0 0c0,-0.01 -0.01,-0.03 -0.02,-0.04 -0.02,-0.01 -0.04,-0.01 -0.05,-0.01 -0.01,-0.01 -0.02,-0.03 -0.04,-0.03 -0.01,-0.01 -0.03,-0.01 -0.04,0 -0.02,-0.02 -0.04,-0.03 -0.07,-0.02 -0.01,-0.02 -0.03,-0.03 -0.05,-0.03 -0.02,-0.01 -0.04,0.01 -0.05,0.03l-0.04 0.07zm0.04 0.06c-0.01,0 -0.01,-0.01 -0.01,-0.02l0.04 -0.09c0.01,-0.01 0.01,-0.01 0.01,-0.01 0.01,0 0.01,0 0.01,0 0.01,0 0.01,0 0.01,0 0.01,0.01 0.01,0.02 0.01,0.02l-0.04 0.09c-0.01,0.01 -0.02,0.01 -0.03,0.01l0 0zm0.09 0.03c-0.01,0.01 -0.02,0.01 -0.02,0 -0.01,0 -0.01,-0.01 -0.01,-0.02l0.04 -0.09c0,0 0.01,-0.01 0.01,-0.01 0,0 0.01,0 0.01,0 0.01,0 0.01,0 0.02,0.01 0,0.01 0,0.01 -0.01,0.01l-0.03 0.1c-0.01,0 -0.01,0 -0.01,0l0 0zm0.06 0.02c-0.01,0 -0.02,-0.01 -0.01,-0.02l0.03 -0.08 0.01 -0.01c0,-0.01 0.01,-0.02 0.02,-0.01 0.01,0 0.01,0.01 0.01,0.02l-0.04 0.09 0 0c0,0.01 -0.01,0.02 -0.02,0.01l0 0zm0.07 0.03l0 0c-0.01,0 -0.02,-0.01 -0.01,-0.02l0.04 -0.09 0 0c0,0 0,-0.01 0.01,-0.01 0,0 0,0 0,0 0.01,0 0.02,0 0.02,0.01 0,0 0,0.01 0,0.01l-0.04 0.09c0,0.01 -0.01,0.02 -0.02,0.01l0 0zm0.09 -0.04c0,0.01 -0.01,0.01 -0.01,0.01l0.01 -0.03 0.01 0 0 0c0,0.01 0,0.02 -0.01,0.02zm0.73 -0.01c0,0 0,0 -0.01,0l-0.64 0c0.02,-0.01 0.03,-0.03 0.03,-0.05 0.01,0 0.03,-0.01 0.04,-0.02 0.02,0 0.03,0 0.05,-0.01 0,0.01 0.02,0.02 0.03,0.02l0 0 0.03 0c0,0 0,0.01 0.01,0.02 0,0 0.01,0.01 0.02,0.01l0 0 0.13 -0.01c0.01,0 0.01,0 0.02,-0.01 0,0 0.01,0 0.01,-0.01l0.28 0 0 0.06zm0.09 -0.1l-0.37 0 -0.01 -0.17 0.27 0c0.01,0 0.01,0 0.02,-0.01 0,0 0,0 0,-0.01 0,-0.01 0,-0.01 0,-0.02 -0.01,0 -0.01,0 -0.02,0l-0.27 0 0 -0.08 0.27 0c0.01,0 0.01,0 0.02,-0.01 0,0 0,-0.01 0,-0.01 0,-0.01 0,-0.01 0,-0.02 -0.01,0 -0.01,0 -0.02,0l-0.27 0 0 0c0,-0.02 -0.02,-0.04 -0.04,-0.04l-0.08 0.01 0 0c-0.02,0 -0.03,0.01 -0.03,0.03l0 0 -0.07 0c-0.01,0 -0.02,0.01 -0.03,0.01 0,0.01 -0.01,0.01 -0.01,0.02 -0.05,0 -0.08,-0.02 -0.12,-0.04l0 0c-0.04,-0.02 -0.08,-0.04 -0.12,-0.04l0 -0.69c0,0 0,0 0,0l0.63 0 0 0.23c0,0.01 0.01,0.02 0.02,0.02l0.23 0 0 0.82c0,0 0,0 0,0l0 0zm-0.79 -0.8c0,-0.01 0.01,-0.02 0.02,-0.02l0.2 0c0.01,0 0.02,0.01 0.02,0.02 0,0.01 -0.01,0.02 -0.02,0.02l-0.2 0c-0.01,0 -0.01,0 -0.01,0 -0.01,-0.01 -0.01,-0.01 -0.01,-0.02l0 0zm0 0.12c0,-0.01 0.01,-0.02 0.02,-0.02l0.02 0c0.01,0 0.02,0.01 0.02,0.02 0,0.01 -0.01,0.02 -0.02,0.02l-0.02 0c-0.01,0 -0.01,0 -0.01,0 -0.01,-0.01 -0.01,-0.01 -0.01,-0.02zm0.11 -0.02l0.17 0c0.01,0 0.02,0.01 0.02,0.02 0,0.01 -0.01,0.02 -0.02,0.02l-0.17 0c-0.01,0 -0.02,-0.01 -0.02,-0.02 0,-0.01 0.01,-0.02 0.02,-0.02zm0.59 0.14l0 0c0,0.01 0,0.01 0,0.02 -0.01,0 -0.01,0 -0.02,0l-0.66 0c-0.01,0 -0.02,0 -0.02,-0.02 0,-0.01 0.01,-0.02 0.02,-0.02l0.66 0c0.01,0 0.01,0.01 0.02,0.01 0,0 0,0.01 0,0.01l0 0zm0 0.13l0 0c0,0 0,0.01 0,0.01 -0.01,0 -0.01,0.01 -0.02,0.01l-0.66 0c-0.01,0 -0.02,-0.01 -0.02,-0.02 0,-0.02 0.01,-0.02 0.02,-0.02l0.66 0c0.01,0 0.01,0 0.02,0 0,0.01 0,0.01 0,0.02l0 0zm-1.23 0.38l0 0.05 0 0c-0.01,0.01 -0.01,0.02 -0.02,0.02l-0.01 0c0,0 -0.01,0 -0.01,-0.01 0,0 -0.01,0 0,-0.01l0 -0.05c0,-0.01 0.01,-0.02 0.02,-0.02 0.01,0 0.02,0.01 0.02,0.02l0 0zm0.84 0.01l0 -0.05c0,0 0,-0.01 0,-0.01 0,-0.01 0.01,-0.01 0.02,-0.01 0,0 0.01,0 0.01,0.01 0,0 0.01,0.01 0.01,0.01l0 0.05c0,0.01 -0.01,0.02 -0.02,0.02l0 0c-0.01,0 -0.02,-0.01 -0.02,-0.02l0 0z"/>
   </g>
  </g>
 </g>
</svg>