<?xml version="1.0" encoding="UTF-8"?>
<!DOCTYPE svg PUBLIC "-//W3C//DTD SVG 1.1//EN" "http://www.w3.org/Graphics/SVG/1.1/DTD/svg11.dtd">
<!-- Creator: CorelDRAW 2023 -->
<svg xmlns="http://www.w3.org/2000/svg" xml:space="preserve" width="48px" height="48px" version="1.1" style="shape-rendering:geometricPrecision; text-rendering:geometricPrecision; image-rendering:optimizeQuality; fill-rule:evenodd; clip-rule:evenodd"
viewBox="0 0 2.12 2.12"
 xmlns:xlink="http://www.w3.org/1999/xlink"
 xmlns:xodm="http://www.corel.com/coreldraw/odm/2003">
 <defs>
  <style type="text/css">
   <![CDATA[
    .fil0 {fill:none}
    .fil1 {fill:#336699;fill-rule:nonzero}
   ]]>
  </style>
 </defs>
 <g id="Camada_x0020_1">
  <metadata id="CorelCorpID_0Corel-Layer"/>
  <g id="_2514710633488">
   <rect class="fil0" width="2.12" height="2.12"/>
   <g>
    <g>
     <path class="fil1" d="M0.57 1.21c0,-0.02 0,-0.04 0,-0.05 0,0 0,0 0,0 0,-0.01 0,-0.01 0,-0.01 0,0 0,0 0,0 0.01,-0.01 0.02,-0.03 0.03,-0.06 0.01,-0.11 0.01,-0.18 -0.03,-0.29 -0.03,-0.07 -0.09,-0.1 -0.13,-0.08 -0.05,0.01 -0.07,0.07 -0.05,0.12 0,0.03 0.01,0.06 0.02,0.1 0.01,-0.04 0.01,-0.07 0.01,-0.1 0,-0.02 0,-0.03 0,-0.03 -0.01,-0.02 0,-0.03 0.01,-0.04 0,-0.01 0.02,-0.02 0.03,-0.02 0,0 0.01,0 0.01,0 0.02,0 0.04,0.02 0.05,0.04 0,0 0,0.02 0,0.05 0,0.06 -0.01,0.11 -0.03,0.16 -0.02,0.05 -0.05,0.11 -0.12,0.17 -0.01,0.01 -0.02,0.02 -0.02,0.03 -0.05,0.07 -0.1,0.19 -0.13,0.37 0,0.03 0.02,0.06 0.06,0.07 0,0 0,0 0.01,0 0.03,0 0.05,-0.02 0.06,-0.05 0.02,-0.14 0.06,-0.24 0.09,-0.3 0.02,0.09 0.06,0.21 0.17,0.33 0.01,0.01 0.03,0.02 0.05,0.02 0.01,0 0.03,0 0.04,-0.02 0.03,-0.02 0.03,-0.06 0.01,-0.09 -0.13,-0.13 -0.14,-0.26 -0.14,-0.32z"/>
     <circle class="fil1" transform="matrix(0.0364723 -0.00849362 0.00849361 0.0364724 0.375849 0.576399)" r="3.1"/>
     <path class="fil1" d="M0.48 1c0.03,-0.06 0.03,-0.12 0.03,-0.16 0,-0.03 0,-0.05 0,-0.05 -0.01,-0.02 -0.03,-0.03 -0.05,-0.03 -0.02,0 -0.04,0.02 -0.03,0.05l0 0c0,0 0,0.01 0,0.03 0,0.04 0,0.08 -0.02,0.13 -0.02,0.05 -0.06,0.1 -0.12,0.14 -0.02,0.01 -0.02,0.03 -0.01,0.05 0.01,0.01 0.02,0.02 0.04,0.02 0,0 0.01,0 0.02,-0.01 0.07,-0.05 0.12,-0.11 0.14,-0.17z"/>
     <path class="fil1" d="M1.73 1.62c0.01,0.02 0.03,0.03 0.05,0.03 0.01,0 0.01,0 0.02,0 0.02,0 0.04,-0.03 0.03,-0.06l-0.08 -0.32c-0.04,0.02 -0.07,0.03 -0.1,0.04l0.08 0.31z"/>
     <path class="fil1" d="M1.43 1.59c-0.01,0.03 0.01,0.05 0.03,0.06 0.01,0.01 0.02,0.01 0.02,0.01 0.02,0 0.04,-0.02 0.05,-0.04l0.1 -0.31c-0.04,0.01 -0.08,0.02 -0.11,0.02l-0.09 0.26z"/>
     <circle class="fil1" transform="matrix(0.0368393 -0.00673348 0.00673347 0.0368394 1.7026 0.598924)" r="3.1"/>
     <path class="fil1" d="M1.51 0.85c-0.01,0.02 -0.02,0.04 -0.02,0.06 -0.04,0.1 -0.05,0.23 -0.06,0.31 0,0.05 0,0.08 0,0.09 0,0 0,0 0.01,0 0.01,0 0.02,0 0.04,0 0.08,0 0.21,-0.01 0.38,-0.11 -0.01,-0.03 -0.03,-0.05 -0.04,-0.07 -0.09,-0.04 -0.14,-0.12 -0.17,-0.18 -0.03,-0.06 -0.04,-0.11 -0.04,-0.12l0 0 0 0c0,-0.03 0.01,-0.05 0.04,-0.05 0,0 0,0 0.01,0 0.02,0 0.04,0.01 0.04,0.04l0 0c0,0 0,0 0,0 0,0.01 0.01,0.01 0.01,0.02 0,0.02 0.01,0.05 0.02,0.07 0.01,0.03 0.03,0.05 0.04,0.07 0,-0.02 0,-0.03 0,-0.04 -0.01,-0.08 -0.01,-0.13 -0.03,-0.17 -0.02,-0.02 -0.04,-0.04 -0.09,-0.04 0,0 -0.01,0 -0.01,0 0,0 -0.01,0 -0.01,0 0,0 0,0 -0.01,0 0,0 -0.02,0 -0.06,0.01 -0.02,0.01 -0.04,0.02 -0.07,0.03 -0.07,0.04 -0.15,0.11 -0.19,0.24 0,0 0,0 0,0.01 -0.01,0.01 -0.02,0.01 -0.03,0.02 -0.01,0 -0.02,0.01 -0.03,0.01 -0.03,0 -0.05,-0.01 -0.07,-0.02 -0.01,-0.01 -0.02,-0.01 -0.03,-0.02 0,0 0,0 0,0 0,0 -0.01,0 -0.01,0 0,0 0,0 0,0 0,-0.01 0,-0.01 -0.01,-0.01 0,0 -0.01,0 -0.01,0l-0.15 0c0,0 0,0 0,0 -0.03,0 -0.05,0.01 -0.06,0.02 -0.03,0.03 -0.05,0.06 -0.06,0.11 -0.01,0.05 -0.02,0.11 -0.02,0.18 0,0 0,0 0,0 0,0.02 0.02,0.04 0.04,0.04 0,0 0,0 0,0 0.01,0 0.03,-0.02 0.03,-0.04 0,0 0,0 0,0 0,0 0,0 0,0 0,-0.09 0.01,-0.16 0.03,-0.2 0,0 0,-0.01 0,-0.01l0 0.11 0 0.06 0.22 0 0 -0.06 0 -0.12c0.02,0.01 0.06,0.02 0.1,0.02 0,0 0,0 0,0 0.02,0 0.04,0 0.06,-0.01 0.02,-0.01 0.04,-0.03 0.05,-0.05 0.01,0 0.02,-0.01 0.02,-0.02 0.03,-0.08 0.07,-0.13 0.12,-0.17 0,0 0.01,-0.01 0.02,-0.01z"/>
     <path class="fil1" d="M1.87 1.06c-0.07,-0.03 -0.12,-0.09 -0.15,-0.14 -0.01,-0.03 -0.02,-0.05 -0.02,-0.07 0,-0.01 -0.01,-0.02 -0.01,-0.03 0,0 0,0 0,0 0,0 0,0 0,0 0,0 0,0 0,0 0,-0.02 -0.02,-0.04 -0.04,-0.03 -0.02,0 -0.03,0.02 -0.03,0.04 0,0 0.01,0.05 0.04,0.12 0.03,0.06 0.09,0.14 0.19,0.18 0,0 0.01,0 0.01,0 0.02,0 0.03,-0.01 0.04,-0.03 0,-0.01 -0.01,-0.04 -0.03,-0.04z"/>
     <path class="fil1" d="M0.92 1.29l0 0.01 0 0.31c0,0.03 0.03,0.05 0.05,0.05 0.03,0 0.05,-0.02 0.05,-0.05l0 -0.23 0.02 0 0 0.23c0,0.03 0.02,0.05 0.05,0.05 0.03,0 0.05,-0.02 0.05,-0.05l0 -0.31 0 -0.01 -0.22 0z"/>
     <circle class="fil1" cx="1.03" cy="0.88" r="0.1"/>
    </g>
   </g>
  </g>
 </g>
</svg>
