<?xml version="1.0" encoding="UTF-8"?>
<!DOCTYPE svg PUBLIC "-//W3C//DTD SVG 1.1//EN" "http://www.w3.org/Graphics/SVG/1.1/DTD/svg11.dtd">
<!-- Creator: CorelDRAW 2023 -->
<svg xmlns="http://www.w3.org/2000/svg" xml:space="preserve" width="48px" height="48px" version="1.1" style="shape-rendering:geometricPrecision; text-rendering:geometricPrecision; image-rendering:optimizeQuality; fill-rule:evenodd; clip-rule:evenodd"
viewBox="0 0 2.57 2.57"
 xmlns:xlink="http://www.w3.org/1999/xlink"
 xmlns:xodm="http://www.corel.com/coreldraw/odm/2003">
 <defs>
  <style type="text/css">
   <![CDATA[
    .fil0 {fill:none}
    .fil1 {fill:#336699;fill-rule:nonzero}
   ]]>
  </style>
 </defs>
 <g id="Camada_x0020_1">
  <metadata id="CorelCorpID_0Corel-Layer"/>
  <g id="_2514594994512">
   <rect class="fil0" width="2.57" height="2.57"/>
   <g>
    <g>
     <g>
      <path class="fil1" d="M1.47 0.85c0.01,0 0.02,-0.01 0.02,-0.02 0,-0.02 -0.01,-0.03 -0.02,-0.03 -0.01,0 -0.02,0.01 -0.02,0.03 0,0.01 0.01,0.02 0.02,0.02z"/>
      <path class="fil1" d="M1.47 0.89c0,0 0,0.01 0,0.02 0.02,0.02 0.04,0.02 0.07,0.02 0.02,0 0.04,0 0.06,-0.02 0,-0.01 0,-0.02 0,-0.02 -0.01,-0.01 -0.02,-0.01 -0.03,0 -0.02,0.02 -0.05,0.02 -0.07,0 -0.01,-0.01 -0.02,-0.01 -0.03,0z"/>
      <path class="fil1" d="M1.6 0.85c0.01,0 0.02,-0.01 0.02,-0.02 0,-0.02 -0.01,-0.03 -0.02,-0.03 -0.01,0 -0.02,0.01 -0.02,0.03 0,0.01 0.01,0.02 0.02,0.02z"/>
      <path class="fil1" d="M0.82 1.36l-0.14 0c-0.03,0 -0.06,0.02 -0.06,0.05l0 0.49c0,0.03 0.03,0.05 0.06,0.05l0.14 0c0.03,0 0.05,-0.02 0.06,-0.04l0.2 0.07c0.09,0.03 0.18,0.04 0.27,0.01l0.53 -0.24c0.06,-0.02 0.08,-0.08 0.06,-0.14 -0.02,-0.05 -0.09,-0.08 -0.14,-0.06l-0.04 0.02 -0.02 -0.08c0.01,0 0.02,0 0.03,0 0.04,-0.01 0.06,-0.05 0.05,-0.08 -0.01,-0.07 -0.03,-0.12 -0.05,-0.22l0.02 0.02c0.04,0.02 0.09,0.01 0.11,-0.03 0.02,-0.03 0.01,-0.08 -0.02,-0.1 -0.2,-0.13 -0.18,-0.11 -0.18,-0.11 0,0 -0.01,-0.01 -0.02,-0.01 0.04,-0.04 0.07,-0.1 0.07,-0.16 0,-0.03 -0.01,-0.05 -0.02,-0.07 0.02,-0.01 0.03,-0.01 0.05,-0.02 0.04,-0.01 0.06,-0.06 0.07,-0.09 0.01,-0.01 0,-0.03 -0.02,-0.04 0,0 0,0 0,0 -0.02,-0.01 -0.07,-0.03 -0.12,-0.01 -0.02,0.01 -0.05,0.03 -0.06,0.05 -0.03,-0.02 -0.07,-0.03 -0.12,-0.03 0,0 0,0 0,0 -0.04,0 -0.08,0.01 -0.11,0.03 0,0 -0.01,0 -0.01,0 -0.01,-0.02 -0.03,-0.04 -0.06,-0.05 -0.04,-0.02 -0.09,0 -0.12,0.01 -0.01,0.01 -0.02,0.03 -0.01,0.04 0,0.03 0.03,0.08 0.07,0.09 0.02,0.01 0.03,0.01 0.05,0.02 -0.01,0.02 -0.02,0.04 -0.02,0.07 0,0.06 0.03,0.11 0.07,0.15 -0.01,0 -0.04,0.02 -0.04,0.02l-0.18 0.11c-0.03,0.02 -0.04,0.07 -0.02,0.1 0.02,0.04 0.07,0.05 0.1,0.03l0.03 -0.02c-0.02,0.08 -0.04,0.14 -0.05,0.21 -0.01,0.03 0.01,0.07 0.04,0.08 0.02,0 0.03,0 0.04,0.01l-0.01 0.05 -0.04 0c-0.01,0 -0.02,-0.01 -0.03,-0.01 -0.01,-0.01 -0.11,-0.12 -0.28,-0.12l-0.07 0 0 0c0,-0.03 -0.03,-0.05 -0.06,-0.05zm-0.06 0.49c-0.02,0 -0.03,-0.01 -0.03,-0.03 0,-0.02 0.01,-0.04 0.03,-0.04 0.03,0 0.04,0.02 0.04,0.04 0,0.02 -0.01,0.03 -0.04,0.03zm0.61 -1.05c0,-0.01 0,-0.01 0,-0.01 0.04,-0.01 0.08,-0.03 0.12,-0.06 0.06,0.06 0.14,0.07 0.21,0.05 0,0 0,0.01 0,0.02 0,0.09 -0.07,0.16 -0.17,0.16 -0.09,0 -0.16,-0.07 -0.16,-0.16zm-0.09 0.63c-0.01,0 -0.01,-0.01 -0.01,-0.02 0.05,-0.23 0.11,-0.37 0.12,-0.41 0,-0.01 0.01,-0.01 0.02,-0.01 0,0.05 0.06,0.1 0.12,0.1 0.07,0 0.12,-0.04 0.13,-0.09 0,0 0,0 0.01,0 0,0.02 0.01,0.06 0.05,0.15 0.03,0.16 0.04,0.19 0.06,0.27 0,0.01 -0.01,0.02 -0.02,0.02 0,0 0,0 0,0 -0.13,0.03 -0.3,0.03 -0.48,-0.01zm0.17 0.12l0.02 -0.04c0.04,0 0.08,0 0.12,0l0.03 0.12 -0.09 0.04c0,0 0,0 0,-0.01 0,-0.05 -0.03,-0.09 -0.08,-0.11zm-0.57 -0.09l0.07 0c0.15,0 0.24,0.1 0.25,0.1 0.02,0.01 0.04,0.02 0.06,0.02l0.14 0c0.04,0 0.08,0.04 0.08,0.08 0,0.05 -0.04,0.08 -0.08,0.08 0,0 0,0 0,0l-0.22 0 0 0c-0.01,0 -0.02,0.01 -0.02,0.03 0,0.01 0.01,0.02 0.02,0.02l0.22 0c0,0 0,0 0,0 0.04,0 0.09,-0.02 0.11,-0.06l0.31 -0.13c0.03,-0.02 0.06,0 0.08,0.03 0.01,0.03 0,0.07 -0.03,0.08l-0.54 0.24c-0.06,0.02 -0.14,0.02 -0.23,-0.01l-0.22 -0.08 0 -0.4z"/>
     </g>
    </g>
   </g>
  </g>
 </g>
</svg>
