<?xml version="1.0" encoding="UTF-8"?>
<!DOCTYPE svg PUBLIC "-//W3C//DTD SVG 1.1//EN" "http://www.w3.org/Graphics/SVG/1.1/DTD/svg11.dtd">
<!-- Creator: CorelDRAW 2023 -->
<svg xmlns="http://www.w3.org/2000/svg" xml:space="preserve" width="60px" height="60px" version="1.1" style="shape-rendering:geometricPrecision; text-rendering:geometricPrecision; image-rendering:optimizeQuality; fill-rule:evenodd; clip-rule:evenodd"
viewBox="0 0 60 60"
 xmlns:xlink="http://www.w3.org/1999/xlink"
 xmlns:xodm="http://www.corel.com/coreldraw/odm/2003">
 <defs>
  <style type="text/css">
   <![CDATA[
    .fil1 {fill:white}
    .fil0 {fill:url(#id0)}
   ]]>
  </style>
  <linearGradient id="id0" gradientUnits="userSpaceOnUse" x1="30.63" y1="3.59" x2="30.63" y2="55.15">
   <stop offset="0" style="stop-opacity:1; stop-color:#4AC14B"/>
   <stop offset="1" style="stop-opacity:1; stop-color:#06853A"/>
  </linearGradient>
 </defs>
 <g id="Camada_x0020_1">
  <metadata id="CorelCorpID_0Corel-Layer"/>
  <g id="OBJECTS">
   <g>
    <path class="fil0" d="M30.7 3.66c-14.34,0 -26,11.56 -26,25.79 0,5.64 1.84,10.87 4.95,15.12l-3.24 9.58 9.99 -3.17c4.1,2.69 9.02,4.26 14.3,4.26 14.33,0 25.99,-11.57 25.99,-25.79 0,-14.23 -11.66,-25.79 -25.99,-25.79l0 0z"/>
    <g>
     <path class="fil1" d="M60 29.23c0,16.14 -13.19,29.22 -29.45,29.22 -5.17,0 -10.02,-1.32 -14.24,-3.63l-16.31 5.18 5.32 -15.68c-2.69,-4.4 -4.23,-9.57 -4.23,-15.09 0,-16.14 13.19,-29.23 29.46,-29.23 16.26,0 29.45,13.09 29.45,29.23l0 0zm-29.45 -24.57c-13.66,0 -24.77,11.02 -24.77,24.57 0,5.37 1.75,10.35 4.72,14.41l-3.09 9.12 9.51 -3.02c3.91,2.56 8.59,4.06 13.63,4.06 13.65,0 24.76,-11.02 24.76,-24.57 0,-13.55 -11.11,-24.57 -24.76,-24.57l0 0zm14.87 31.3c-0.18,-0.3 -0.66,-0.48 -1.38,-0.84 -0.73,-0.35 -4.28,-2.09 -4.94,-2.33 -0.66,-0.23 -1.14,-0.36 -1.62,0.36 -0.48,0.72 -1.87,2.33 -2.29,2.81 -0.42,0.48 -0.84,0.54 -1.56,0.18 -0.73,-0.36 -3.05,-1.12 -5.81,-3.55 -2.15,-1.91 -3.6,-4.25 -4.02,-4.97 -0.42,-0.71 -0.04,-1.1 0.32,-1.46 0.32,-0.32 0.72,-0.83 1.08,-1.25 0.36,-0.42 0.48,-0.72 0.72,-1.2 0.24,-0.48 0.13,-0.89 -0.06,-1.25 -0.18,-0.36 -1.62,-3.89 -2.22,-5.32 -0.6,-1.43 -1.2,-1.38 -1.63,-1.38 -0.42,0 -1.2,0.13 -1.2,0.13 0,0 -1.45,0.17 -2.11,0.89 -0.66,0.72 -2.52,2.45 -2.52,5.97 0,3.53 2.58,6.94 2.94,7.41 0.37,0.48 5,7.95 12.34,10.82 7.34,2.87 7.34,1.91 8.66,1.79 1.33,-0.12 4.27,-1.73 4.88,-3.4 0.6,-1.68 0.6,-3.11 0.42,-3.41l0 0zm0 0z"/>
    </g>
   </g>
  </g>
 </g>
</svg>
